<svg xmlns="http://www.w3.org/2000/svg" viewBox="0 0 512 512" role="img" aria-labelledby="title desc">
  <title id="title">Logo Cafe de Rick</title>
  <desc id="desc">Una taza de cafe enmarcada por dos tiras de pelicula.</desc>
  <rect width="512" height="512" rx="72" fill="#101010"/>
  <g fill="#fff">
    <rect x="154" y="120" width="16" height="22"/>
    <rect x="154" y="154" width="16" height="22"/>
    <rect x="154" y="188" width="16" height="22"/>
    <rect x="154" y="222" width="16" height="22"/>
    <rect x="154" y="256" width="16" height="22"/>
    <rect x="154" y="290" width="16" height="22"/>
    <rect x="154" y="324" width="16" height="22"/>
    <rect x="154" y="358" width="16" height="22"/>
    <rect x="342" y="120" width="16" height="22"/>
    <rect x="342" y="154" width="16" height="22"/>
    <rect x="342" y="188" width="16" height="22"/>
    <rect x="342" y="222" width="16" height="22"/>
    <rect x="342" y="256" width="16" height="22"/>
    <rect x="342" y="290" width="16" height="22"/>
    <rect x="342" y="324" width="16" height="22"/>
    <rect x="342" y="358" width="16" height="22"/>
    <path d="M245 178h85l-14 99h-56z"/>
    <path d="M250 198h-11c-10 0-18 8-18 18v18c0 22 18 40 40 40h6v-16h-6c-13 0-24-11-24-24v-18c0-1 1-2 2-2h11z"/>
  </g>
</svg>
